HIERARCHY
ROOT hips
{
  OFFSET -0.00735851563513279 12.18665635585785 0.12248523347079754
  CHANNELS 6 Xposition Yposition Zposition Yrotation Xrotation Zrotation
  JOINT spine
  {
    OFFSET 1.0244548320770264e-7 0.5955291986465454 0
    CHANNELS 3 Yrotation Xrotation Zrotation
    JOINT chest
    {
      OFFSET 0 1.2719063864449713 0
      CHANNELS 3 Yrotation Xrotation Zrotation
      JOINT upperChest
      {
        OFFSET 0 1.490802666915459 0
        CHANNELS 3 Yrotation Xrotation Zrotation
        JOINT neck
        {
          OFFSET 0 1.3131953345263365 0
          CHANNELS 3 Yrotation Xrotation Zrotation
          JOINT head
          {
            OFFSET 0 0.8653679716847534 0
            CHANNELS 3 Yrotation Xrotation Zrotation
            JOINT leftEye
            {
              OFFSET 0.20629723300226033 0.6721053123474121 0.3036841657012701
              CHANNELS 3 Yrotation Xrotation Zrotation
              End Site
              {
                OFFSET 0.20629723300226033 0.6721053123474121 0.3036841657012701
              }
            }
            JOINT rightEye
            {
              OFFSET -0.20629652100615203 0.6721066236495972 0.30368443205952644
              CHANNELS 3 Yrotation Xrotation Zrotation
              End Site
              {
                OFFSET -0.20629652100615203 0.6721066236495972 0.30368443205952644
              }
            }
          }
        }
        JOINT leftShoulder
        {
          OFFSET 0.24624172446783632 0.959903359413147 0
          CHANNELS 3 Yrotation Xrotation Zrotation
          JOINT leftUpperArm
          {
            OFFSET 0.9650355761446514 0 0
            CHANNELS 3 Yrotation Xrotation Zrotation
            JOINT leftLowerArm
            {
              OFFSET 2.4419134471639827 0 0
              CHANNELS 3 Yrotation Xrotation Zrotation
              JOINT leftHand
              {
                OFFSET 2.3874557408809456 0 0
                CHANNELS 3 Yrotation Xrotation Zrotation
                JOINT leftIndexProximal
                {
                  OFFSET 0.7029628753662109 0.06118142604827881 0.23586585000157356
                  CHANNELS 3 Yrotation Xrotation Zrotation
                  JOINT leftIndexIntermediate
                  {
                    OFFSET 0.36102771759033203 -0.001475214958190918 0.056637559086084366
                    CHANNELS 3 Yrotation Xrotation Zrotation
                    JOINT leftIndexDistal
                    {
                      OFFSET 0.22344785928726196 -0.007408857345581055 0.02531452476978302
                      CHANNELS 3 Yrotation Xrotation Zrotation
                      End Site
                      {
                        OFFSET 0.22344785928726196 -0.007408857345581055 0.02531452476978302
                      }
                    }
                  }
                }
                JOINT leftLittleProximal
                {
                  OFFSET 0.6958752870559692 0.034375786781311035 -0.29472956992685795
                  CHANNELS 3 Yrotation Xrotation Zrotation
                  JOINT leftLittleIntermediate
                  {
                    OFFSET 0.34538060426712036 -0.0030041933059692383 0.00024324655532836914
                    CHANNELS 3 Yrotation Xrotation Zrotation
                    JOINT leftLittleDistal
                    {
                      OFFSET 0.19865047931671143 0.00746917724609375 -0.010377676226198673
                      CHANNELS 3 Yrotation Xrotation Zrotation
                      End Site
                      {
                        OFFSET 0.19865047931671143 0.00746917724609375 -0.010377676226198673
                      }
                    }
                  }
                }
                JOINT leftMiddleProximal
                {
                  OFFSET 0.7272291779518127 0.09209799766540527 0.05257739871740341
                  CHANNELS 3 Yrotation Xrotation Zrotation
                  JOINT leftMiddleIntermediate
                  {
                    OFFSET 0.40590834617614746 -0.014838695526123047 0.026817932724952698
                    CHANNELS 3 Yrotation Xrotation Zrotation
                    JOINT leftMiddleDistal
                    {
                      OFFSET 0.2495119571685791 -0.026458144187927246 0.010310646146535873
                      CHANNELS 3 Yrotation Xrotation Zrotation
                      End Site
                      {
                        OFFSET 0.2495119571685791 -0.026458144187927246 0.010310646146535873
                      }
                    }
                  }
                }
                JOINT leftRingProximal
                {
                  OFFSET 0.7334893345832825 0.09136629104614258 -0.1205735495314002
                  CHANNELS 3 Yrotation Xrotation Zrotation
                  JOINT leftRingIntermediate
                  {
                    OFFSET 0.3775520920753479 -0.005917906761169434 0.001896639820188284
                    CHANNELS 3 Yrotation Xrotation Zrotation
                    JOINT leftRingDistal
                    {
                      OFFSET 0.2177620530128479 0.007703900337219238 0.0027355607599020004
                      CHANNELS 3 Yrotation Xrotation Zrotation
                      End Site
                      {
                        OFFSET 0.2177620530128479 0.007703900337219238 0.0027355607599020004
                      }
                    }
                  }
                }
                JOINT leftThumbProximal
                {
                  OFFSET 0.02235114574432373 -0.07603192329406738 0.1950724683701992
                  CHANNELS 3 Yrotation Xrotation Zrotation
                  JOINT leftThumbIntermediate
                  {
                    OFFSET 0.3551589846611023 -0.02970755100250244 0.36741212010383606
                    CHANNELS 3 Yrotation Xrotation Zrotation
                    JOINT leftThumbDistal
                    {
                      OFFSET 0.23456048965454102 -0.016631245613098145 0.2093813568353653
                      CHANNELS 3 Yrotation Xrotation Zrotation
                      End Site
                      {
                        OFFSET 0.23456048965454102 -0.016631245613098145 0.2093813568353653
                      }
                    }
                  }
                }
              }
            }
          }
        }
        JOINT rightShoulder
        {
          OFFSET -0.24624088185373694 0.9600239992141724 0
          CHANNELS 3 Yrotation Xrotation Zrotation
          JOINT rightUpperArm
          {
            OFFSET -0.9650300767908009 0 0
            CHANNELS 3 Yrotation Xrotation Zrotation
            JOINT rightLowerArm
            {
              OFFSET -2.4420125187833426 0 0
              CHANNELS 3 Yrotation Xrotation Zrotation
              JOINT rightHand
              {
                OFFSET -2.3874255620910265 0 0
                CHANNELS 3 Yrotation Xrotation Zrotation
                JOINT rightIndexProximal
                {
                  OFFSET -0.7029609084129333 0.06117355823516846 0.23587234504520893
                  CHANNELS 3 Yrotation Xrotation Zrotation
                  JOINT rightIndexIntermediate
                  {
                    OFFSET -0.3610270619392395 -0.0014804601669311523 0.05664427950978279
                    CHANNELS 3 Yrotation Xrotation Zrotation
                    JOINT rightIndexDistal
                    {
                      OFFSET -0.2234485149383545 -0.0074127912521362305 0.025317884981632233
                      CHANNELS 3 Yrotation Xrotation Zrotation
                      End Site
                      {
                        OFFSET -0.2234485149383545 -0.0074127912521362305 0.025317884981632233
                      }
                    }
                  }
                }
                JOINT rightLittleProximal
                {
                  OFFSET -0.6958779096603394 0.034366607666015625 -0.29472311586141586
                  CHANNELS 3 Yrotation Xrotation Zrotation
                  JOINT rightLittleIntermediate
                  {
                    OFFSET -0.3453786373138428 -0.003008127212524414 0.00025422871112823486
                    CHANNELS 3 Yrotation Xrotation Zrotation
                    JOINT rightLittleDistal
                    {
                      OFFSET -0.19865179061889648 0.00746917724609375 -0.010371447540819645
                      CHANNELS 3 Yrotation Xrotation Zrotation
                      End Site
                      {
                        OFFSET -0.19865179061889648 0.00746917724609375 -0.010371447540819645
                      }
                    }
                  }
                }
                JOINT rightMiddleProximal
                {
                  OFFSET -0.7272304892539978 0.09209012985229492 0.05258418060839176
                  CHANNELS 3 Yrotation Xrotation Zrotation
                  JOINT rightMiddleIntermediate
                  {
                    OFFSET -0.4059063792228699 -0.014843940734863281 0.026821313425898552
                    CHANNELS 3 Yrotation Xrotation Zrotation
                    JOINT rightMiddleDistal
                    {
                      OFFSET -0.24951326847076416 -0.026460766792297363 0.010313207283616066
                      CHANNELS 3 Yrotation Xrotation Zrotation
                      End Site
                      {
                        OFFSET -0.24951326847076416 -0.026460766792297363 0.010313207283616066
                      }
                    }
                  }
                }
                JOINT rightRingProximal
                {
                  OFFSET -0.7334906458854675 0.09135580062866211 -0.12056719791144133
                  CHANNELS 3 Yrotation Xrotation Zrotation
                  JOINT rightRingIntermediate
                  {
                    OFFSET -0.37755340337753296 -0.005923151969909668 0.0019026175141334534
                    CHANNELS 3 Yrotation Xrotation Zrotation
                    JOINT rightRingDistal
                    {
                      OFFSET -0.21775943040847778 0.007701277732849121 0.0027383523993194103
                      CHANNELS 3 Yrotation Xrotation Zrotation
                      End Site
                      {
                        OFFSET -0.21775943040847778 0.007701277732849121 0.0027383523993194103
                      }
                    }
                  }
                }
                JOINT rightThumbProximal
                {
                  OFFSET -0.022347867488861084 -0.07603061199188232 0.19507363624870777
                  CHANNELS 3 Yrotation Xrotation Zrotation
                  JOINT rightThumbIntermediate
                  {
                    OFFSET -0.3550455570220947 -0.029461026191711426 0.36754218488931656
                    CHANNELS 3 Yrotation Xrotation Zrotation
                    JOINT rightThumbDistal
                    {
                      OFFSET -0.23451131582260132 -0.016489624977111816 0.20944765955209732
                      CHANNELS 3 Yrotation Xrotation Zrotation
                      End Site
                      {
                        OFFSET -0.23451131582260132 -0.016489624977111816 0.20944765955209732
                      }
                    }
                  }
                }
              }
            }
          }
        }
      }
    }
  }
  JOINT leftUpperLeg
  {
    OFFSET 0.8483456987887621 -0.42556869983673096 0
    CHANNELS 3 Yrotation Xrotation Zrotation
    JOINT leftLowerLeg
    {
      OFFSET 0 -4.6702112872869534 0
      CHANNELS 3 Yrotation Xrotation Zrotation
      JOINT leftFoot
      {
        OFFSET -0.13096565008163452 -5.202569782733917 -0.2985280640423298
        CHANNELS 3 Yrotation Xrotation Zrotation
        JOINT leftToes
        {
          OFFSET 0.01423943042755127 -0.7568342834711075 1.213271364569664
          CHANNELS 3 Yrotation Xrotation Zrotation
          End Site
          {
            OFFSET 0.01423943042755127 -0.7568342834711075 1.213271364569664
          }
        }
      }
    }
  }
  JOINT rightUpperLeg
  {
    OFFSET -0.8483468051999807 -0.42556607723236084 0
    CHANNELS 3 Yrotation Xrotation Zrotation
    JOINT rightLowerLeg
    {
      OFFSET 0 -4.670219469177788 0
      CHANNELS 3 Yrotation Xrotation Zrotation
      JOINT rightFoot
      {
        OFFSET 0.13097601756453514 -5.202573716640472 -0.29853164963424206
        CHANNELS 3 Yrotation Xrotation Zrotation
        JOINT rightToes
        {
          OFFSET -0.014232628047466278 -0.7568355947732925 1.213272675871849
          CHANNELS 3 Yrotation Xrotation Zrotation
          End Site
          {
            OFFSET -0.014232628047466278 -0.7568355947732925 1.213272675871849
          }
        }
      }
    }
  }
}
MOTION
Frames: 8
Frame Time: 0.03333333333333333
-2.4822315574119482 0.06046260570302005 -0.4442034338019363 68.29076718272646 -3.4550143183277733 8.37154887480599 7.7010322840644525 16.104832983120097 7.107667655524621 10.449091276846284 -10.733481018061418 -10.439777773968835 0 0 0 13.767760486584907 7.881843899128643 -4.8864716286963406 16.884337018110077 -8.193747361702309 -17.679373486460623 0 0 0 0 0 0 -2.331787145528021 2.1728406762208654 -13.314510322852245 -15.598647116557323 -55.44284602935612 22.911734549538174 -106.21640555742948 32.55743825448453 -6.899205083581986 4.90964139002999 4.328937691631996 34.94766086351264 0 0 0 0 0 0 0 0 0 0 0 0 0 0 0 0 0 0 0 0 0 0 0 0 0 0 0 0 0 0 0 0 0 0 0 0 0 0 0 0 0 0 0 0 0 7.781388512324496 0.8919289023997545 6.3209472774035715 25.25312143720367 -41.525792336143176 -38.58489622145807 120.58229333333038 29.446503680120763 9.212742403260535 -11.375159091995702 4.678406880077759 -34.684143065922584 0 0 0 0 0 0 0 0 0 0 0 0 0 0 0 0 0 0 0 0 0 0 0 0 0 0 0 0 0 0 0 0 0 0 0 0 0 0 0 0 0 0 0 0 0 -0.6683007848603184 -23.72487472741123 5.1919659242912966 -8.399919514025635 34.87215643871836 -12.22915416797976 7.427203941969639 26.911127614305432 0.7759411532606814 0 0 0 6.545092682314437 -5.29807145828159 -7.699552380403223 1.241427063942736 18.2158098629884 -1.09851022726435 -0.9395434790383599 -4.794214192529058 3.7450333448729705 0 0 0
-2.4978173649989635 0.03359027685895121 -0.40873208497749214 70.5459399536757 -4.132157283828398 7.462870731264311 7.7352524880912865 14.626737465178547 7.645671256298093 9.912792000630693 -10.464410655023736 -8.864822770058016 0 0 0 15.14386397578613 11.624638899266282 -3.460930214765802 18.07555716739542 -5.960271646588683 -17.22715990949628 0 0 0 0 0 0 -5.969207064757441 2.028361247498276 -14.076346684044307 -15.603649897429076 -53.80289440083581 21.74019759756142 -97.6153574917281 35.30554802371846 -7.482369618198554 4.722065273454509 4.65510270901899 35.637039604826306 0 0 0 0 0 0 0 0 0 0 0 0 0 0 0 0 0 0 0 0 0 0 0 0 0 0 0 0 0 0 0 0 0 0 0 0 0 0 0 0 0 0 0 0 0 10.43453910428542 0.45272832550894854 9.70677173612606 32.149769716090596 -43.212178691093186 -40.03790030877709 107.35629334630258 31.823513046465585 12.551278147146082 -10.850379955291084 5.262319520133756 -34.64062543975362 0 0 0 0 0 0 0 0 0 0 0 0 0 0 0 0 0 0 0 0 0 0 0 0 0 0 0 0 0 0 0 0 0 0 0 0 0 0 0 0 0 0 0 0 0 -1.3996396391281283 -22.633858298762863 5.931464922222127 -10.242897623046966 36.058228273611185 -13.971840006411314 7.333491632414652 25.81180631944061 0.6525713684779466 0 0 0 5.494326466895705 -4.224592606993087 -6.155804463537512 -0.3317861602684261 17.352187406829103 -1.8330981507527508 -1.1582083178134888 -4.180661377833908 3.7030302843081793 0 0 0
-2.5134031725859782 0.0067179480148823745 -0.373260736153048 72.81362081840533 -4.7729952969554414 6.5273471143130415 7.717041004469125 13.130460822560396 8.117186638855138 9.384679789883851 -10.180970791223587 -7.293878300251504 0 0 0 16.63761480373423 15.331105772078406 -1.9202939786645326 19.28047584729459 -3.7366653137529857 -16.73001516088359 0 0 0 0 0 0 -9.604024582925211 1.835889271191203 -14.827402502657028 -15.663116816206061 -52.16332200360281 20.612068800754248 -88.73390491212722 38.09525179576906 -7.558003631068849 4.538351605963732 4.983492526606075 36.32567638737037 0 0 0 0 0 0 0 0 0 0 0 0 0 0 0 0 0 0 0 0 0 0 0 0 0 0 0 0 0 0 0 0 0 0 0 0 0 0 0 0 0 0 0 0 0 13.057069786275342 -0.1418644413333529 13.068575460557154 39.294498644163255 -44.75474594024163 -41.8051060093884 93.90554874061183 34.79902349460492 15.239796712835322 -10.324634674554687 5.845810550823628 -34.59168927338806 0 0 0 0 0 0 0 0 0 0 0 0 0 0 0 0 0 0 0 0 0 0 0 0 0 0 0 0 0 0 0 0 0 0 0 0 0 0 0 0 0 0 0 0 0 -2.110131657658923 -21.534375530824597 6.650221877757784 -12.158282300172235 37.197127695161896 -15.78796500821664 7.243229976346571 24.712310789821128 0.5322930002252401 0 0 0 4.474179117185152 -3.123487831182723 -4.633905427117427 -1.8860559955448863 16.469799317915115 -2.5392932331480926 -1.3771654055995177 -3.5672728152201594 3.6587118612191896 0 0 0
-2.5289889801729935 -0.020154380829186466 -0.3377893873286038 75.09369311023455 -5.376322688819616 5.5661880092621905 7.64996097617522 11.619170205922527 8.523916740398654 8.865126631738095 -9.883412520683946 -5.727060015956295 0 0 0 18.26609749904952 18.99541569105304 -0.24717392246221478 20.502500761222443 -1.5240464647587333 -16.187100173351364 0 0 0 0 0 0 -13.235598219653264 1.5962370608655447 -15.56465569794226 -15.771253757397192 -50.52475586552761 19.52090788324232 -79.49465798330625 40.85971873288646 -7.066497738381686 4.358520229316748 5.31405771666265 37.013607925589774 0 0 0 0 0 0 0 0 0 0 0 0 0 0 0 0 0 0 0 0 0 0 0 0 0 0 0 0 0 0 0 0 0 0 0 0 0 0 0 0 0 0 0 0 0 15.640514070499734 -0.8885603053886119 16.400026891768793 46.691105627457695 -46.124017017822354 -43.880997833711845 80.07505595660164 38.220252778806156 17.083435592190806 -9.79781262379825 6.42882978315186 -34.53731175597024 0 0 0 0 0 0 0 0 0 0 0 0 0 0 0 0 0 0 0 0 0 0 0 0 0 0 0 0 0 0 0 0 0 0 0 0 0 0 0 0 0 0 0 0 0 -2.8006236626654117 -20.426833810264586 7.3490877359226126 -14.147693686655293 38.28571184880503 -17.679068271891392 7.156261116278741 23.612646758110596 0.41493627483614454 0 0 0 3.484535685661276 -1.995916412946259 -3.133181747503453 -3.4219937877829745 15.569513001697121 -3.2172393608309195 -1.5964640200825868 -2.95405784913659 3.6120733889782968 0 0 0
-2.4010736709889695 -0.054552518424768257 -0.28028276463765944 78.2123122782914 -6.8342515413507545 6.0836087098433005 7.345931969835856 8.529265774135315 7.702673828214901 8.670381256496233 -9.127965615564097 -5.1141759886531 0 0 0 18.575587318458513 24.188368340149758 2.3680442167406324 19.61536282147354 1.9662221328299638 -12.080474405282656 0 0 0 0 0 0 -17.385573192049844 1.4364280455062928 -15.1487890893262 -17.717162156727873 -43.75364559586547 16.879090968192088 -59.38868267558656 26.949049284259164 -0.9256608849357825 3.0700934821765116 4.44551589171902 30.125016551395586 0 0 0 0 0 0 0 0 0 0 0 0 0 0 0 0 0 0 0 0 0 0 0 0 0 0 0 0 0 0 0 0 0 0 0 0 0 0 0 0 0 0 0 0 0 16.708927825126466 -1.1308029028949411 17.294033132190883 46.1520837208605 -46.051264513996195 -40.47600746215848 56.89002883297451 36.43876512422912 9.725126190726083 -8.159619506756721 5.629379671377913 -29.461891313629092 0 0 0 0 0 0 0 0 0 0 0 0 0 0 0 0 0 0 0 0 0 0 0 0 0 0 0 0 0 0 0 0 0 0 0 0 0 0 0 0 0 0 0 0 0 -1.5964742468699893 -16.26646232848846 5.110393614529296 -12.151962890576781 34.541346544994184 -13.846650222461161 5.566425183660434 20.012086872315162 -0.17335990345261104 0 0 0 3.2597522093747813 0.5194249653334418 -2.9584328380539833 -4.446131378759308 15.729308845243253 -3.7746996715035674 -3.0833438469762706 -3.9103492340723727 4.210326910959526 0 0 0
-2.2731583618049456 -0.08895065602035004 -0.22277614194671508 81.32817913088901 -8.31799807834914 6.52188023983959 7.122786529914027 5.483851817932047 6.724936774455647 8.484210747935348 -8.370512959657889 -4.505134582536229 0 0 0 19.170697716468556 29.362104070544746 5.137624105487146 18.97787861405949 5.510824494812659 -8.012011394859883 0 0 0 0 0 0 -21.536347123207037 1.3071257884694354 -14.72246722560081 -19.865676383637464 -37.05113171909839 14.203393942289875 -42.57650343619179 12.151160050349276 -0.45365902912426337 1.8967481708312504 3.4295669319462956 23.26545997451717 0 0 0 0 0 0 0 0 0 0 0 0 0 0 0 0 0 0 0 0 0 0 0 0 0 0 0 0 0 0 0 0 0 0 0 0 0 0 0 0 0 0 0 0 0 17.77353513510737 -1.389641535027906 18.183453036094082 45.621039736099654 -45.95645838261278 -37.07730667148436 34.9256819311582 32.54703375815332 4.000114930213462 -6.601023636190176 4.689367089831145 -24.418378718131056 0 0 0 0 0 0 0 0 0 0 0 0 0 0 0 0 0 0 0 0 0 0 0 0 0 0 0 0 0 0 0 0 0 0 0 0 0 0 0 0 0 0 0 0 0 -0.5812211363159624 -12.06577850750014 3.002345854851155 -10.533988467594693 30.70185159079844 -10.326864147610207 4.047768755231718 16.398048784208164 -0.645317395793239 0 0 0 3.042343216700825 3.0354217559117047 -2.793326353701135 -5.472620943452502 15.879473054827166 -4.335467068607596 -4.582047691173266 -4.850759159075176 4.8340387987856905 0 0 0
-2.1452430526209216 -0.12334879361593185 -0.1652695192557707 84.44545176131574 -9.823168672993097 6.879489942434613 6.999484127536605 2.4937001837644295 5.588973169637116 8.306518224762899 -7.611153545197518 -3.899710038518488 0 0 0 20.102365486641762 34.502648901715375 8.1321153039434 18.591426198730947 9.091585932396429 -3.9510975835537483 0 0 0 0 0 0 -25.68778750753881 1.2090142063731082 -14.28792246799968 -22.213306068766126 -30.433737465212285 11.438970949106366 -26.256718351470763 -2.1648538787536453 -4.249841884553928 0.8543090809653188 2.281343364915644 16.434544806540607 0 0 0 0 0 0 0 0 0 0 0 0 0 0 0 0 0 0 0 0 0 0 0 0 0 0 0 0 0 0 0 0 0 0 0 0 0 0 0 0 0 0 0 0 0 18.834127247235923 -1.6649259961823692 19.068018381158023 45.10000402059978 -45.83997119739419 -33.68647209644045 14.485598951840277 27.213813590177182 0.5490590524282615 -5.133218506346851 3.6169597415669688 -19.40872623657871 0 0 0 0 0 0 0 0 0 0 0 0 0 0 0 0 0 0 0 0 0 0 0 0 0 0 0 0 0 0 0 0 0 0 0 0 0 0 0 0 0 0 0 0 0 0.2645107358222221 -7.832497822965926 0.9967157763265196 -9.241670706587312 26.78849601701565 -7.057962769897987 2.5844297200410407 12.773574354383753 -1.011272064891748 0 0 0 2.8314989511265436 5.552017510212928 -2.637264103749211 -6.50133489438041 16.019937244356598 -4.899349565835742 -6.093219068950046 -5.7745123295244785 5.483200443597484 0 0 0
-2.1022475053985925 -0.17709327237588812 -0.1754809505380626 85.75867482082782 -10.928713239569225 6.807469873694284 6.296414036094532 3.0766677355576126 6.296795869799827 7.918762857315452 -7.010830553881618 -4.940176013413699 0 0 0 21.3079012342786 33.910195683391635 9.24137498522132 19.875529148552225 9.918112698901602 -5.020762641567332 0 0 0 0 0 0 -23.222078320554512 1.5465394156532348 -12.895101070471464 -18.920549114901686 -27.78183926095223 9.998574184659383 -35.12395083846609 8.25052809938916 -1.187487898034395 0.44602623631434235 2.811707483725761 17.67304885223643 0 0 0 0 0 0 0 0 0 0 0 0 0 0 0 0 0 0 0 0 0 0 0 0 0 0 0 0 0 0 0 0 0 0 0 0 0 0 0 0 0 0 0 0 0 19.152982078667403 -1.166903548060925 16.79370644832106 32.6213931442686 -33.77555202079858 -24.29052103692675 24.053677332458385 35.858759001898115 4.4681533747324105 -3.2779368240847737 5.208472344970312 -19.21498432512881 0 0 0 0 0 0 0 0 0 0 0 0 0 0 0 0 0 0 0 0 0 0 0 0 0 0 0 0 0 0 0 0 0 0 0 0 0 0 0 0 0 0 0 0 0 0.882191282131302 -6.417435942887409 1.2084387369079284 -8.946740064748184 26.40394835465587 -6.86880580262424 0.9064187800131822 10.966822579025886 -0.45945740602814256 0 0 0 1.944391808349546 6.509369799193821 -2.8537739800702946 -6.425909722244234 17.081129725604626 -4.430598121766346 -6.026513264030016 -6.313013456751592 5.474381827150188 0 0 0
